<svg data-v-423bf9ae="" xmlns="http://www.w3.org/2000/svg" viewBox="0 0 181 90" class="iconLeft"><!----><!----><!----><g data-v-423bf9ae="" id="61afdee5-95bf-4aa3-b4d6-eff751ae1813" fill="#000000" transform="matrix(5.830903811703725,0,0,5.830903811703725,102.71137614927136,11.793003132076386)"><path d="M6.68 1.44L6.68 0.76L1.25 0.76L1.25 10.64L2.37 10.64L2.37 5.99L6.37 5.99L6.37 5.28L2.37 5.28L2.37 1.44ZM12.25 8.05C12.25 9.27 11.59 10.08 10.04 10.08C9.02 10.08 8.22 9.73 7.48 9.35L7.48 10.32C8.13 10.63 9.16 10.84 10.02 10.84C12.11 10.84 13.34 9.67 13.34 8.06C13.34 6.72 12.80 5.94 11.09 5.17L10.16 4.76C9.00 4.26 8.65 3.67 8.65 3.07C8.65 1.86 9.38 1.30 10.68 1.30C11.59 1.30 12.21 1.58 12.89 1.92L12.89 0.98C12.26 0.70 11.49 0.55 10.65 0.55C8.82 0.55 7.63 1.55 7.63 3.16C7.63 4.47 8.27 5.21 9.72 5.84L10.67 6.24C11.76 6.72 12.25 7.28 12.25 8.05Z"></path></g><defs data-v-423bf9ae=""><linearGradient data-v-423bf9ae="" gradientTransform="rotate(25)" id="a854f85f-a205-45f1-890a-7a1feede0cc2" x1="0%" y1="0%" x2="100%" y2="0%"><stop data-v-423bf9ae="" offset="0%" style="stop-color: rgb(54, 22, 172); stop-opacity: 1;"></stop><stop data-v-423bf9ae="" offset="100%" style="stop-color: rgb(224, 155, 237); stop-opacity: 1;"></stop></linearGradient></defs><g data-v-423bf9ae="" id="e011ea92-2e57-43af-a3e4-6850f740eb12" transform="matrix(2.8125,0,0,2.8125,0,0)" stroke="none" fill="url(#a854f85f-a205-45f1-890a-7a1feede0cc2)"><path d="M29.625 1l-3.099 3.172H4.054v23.657h22.472L29.625 31H1V1h28.625M32 0H0v32h32l-5.054-5.172H5.054V5.172h21.893L32 0z"></path><path d="M21.038 10.962v10.076H10.962V10.962h10.076m1-1H9.962v12.076h12.076V9.962z"></path></g><!----></svg>